<?xml version="1.0" encoding="UTF-8"?>
<svg width="1200pt" height="1200pt" version="1.1" viewBox="0 0 1200 1200" xmlns="http://www.w3.org/2000/svg">
 <g>
  <path d="m1068.8 731.25h37.5v37.5h-37.5z"/>
  <path d="m112.5 1050h487.5v37.5h-487.5z"/>
  <path d="m468.75 431.25c-24.898 0-49.594 6.2422-71.383 18.039l17.867 32.98c16.336-8.832 34.84-13.52 53.516-13.52 62.043 0 112.5 50.457 112.5 112.5 0 18.695-4.668 37.199-13.52 53.512l32.961 17.867c11.816-21.766 18.059-46.461 18.059-71.379 0-82.707-67.293-150-150-150z"/>
  <path d="m468.75 693.75c-62.043 0-112.5-50.457-112.5-112.5 0-18.695 4.668-37.199 13.52-53.512l-32.961-17.867c-11.816 21.766-18.059 46.461-18.059 71.379 0 82.707 67.293 150 150 150 24.918 0 49.613-6.2422 71.383-18.055l-17.867-32.961c-16.316 8.8477-34.82 13.516-53.516 13.516z"/>
  <path d="m468.75 506.25c-41.363 0-75 33.637-75 75s33.637 75 75 75 75-33.637 75-75-33.637-75-75-75zm0 112.5c-20.68 0-37.5-16.82-37.5-37.5s16.82-37.5 37.5-37.5 37.5 16.82 37.5 37.5-16.82 37.5-37.5 37.5z"/>
  <path d="m667.46 476.1 37.555-56.344-74.789-74.758-56.344 37.555c-12.449-6.6016-25.48-12.02-38.98-16.164l-13.297-66.391h-105.73l-13.293 66.395c-13.5 4.1445-26.531 9.5625-38.98 16.164l-56.328-37.559-74.773 74.758 37.555 56.344c-6.6016 12.469-12 25.5-16.145 39l-66.41 13.273v105.73l66.395 13.293c4.1641 13.48 9.5625 26.531 16.145 38.98l-37.555 56.363 74.758 74.758 56.363-37.555c12.449 6.6016 25.5 12 38.98 16.145l13.309 66.41h105.73l13.293-66.395c13.48-4.1641 26.531-9.5625 38.98-16.145l56.363 37.555 74.758-74.758-37.555-56.363c6.6016-12.449 12-25.5 16.145-38.98l66.391-13.309v-105.73l-66.395-13.273c-4.1602-13.5-9.5625-26.531-16.145-39zm45.039 127.27-59.195 11.832-2.8672 11.512c-4.4453 17.906-11.531 35.008-21.039 50.832l-6.1133 10.164 33.469 50.23-31.293 31.293-50.23-33.469-10.164 6.1133c-15.824 9.5078-32.926 16.594-50.832 21.039l-11.512 2.8672-11.828 59.211h-44.27l-11.832-59.195-11.512-2.8672c-17.906-4.4453-35.008-11.531-50.832-21.039l-10.164-6.1133-50.23 33.469-31.293-31.293 33.469-50.23-6.1133-10.164c-9.5078-15.824-16.594-32.926-21.039-50.832l-2.8672-11.512-59.211-11.848v-44.25l59.195-11.832 2.8672-11.512c4.4609-17.926 11.531-35.023 21.039-50.812l6.1133-10.18-33.469-50.23 31.293-31.293 50.23 33.488 10.18-6.1328c15.789-9.4883 32.887-16.574 50.812-21.055l11.512-2.8672 11.832-59.199h44.27l11.832 59.176 11.512 2.8672c17.926 4.4805 35.023 11.57 50.812 21.055l10.18 6.1328 50.23-33.488 31.293 31.293-33.469 50.23 6.1133 10.18c9.5078 15.805 16.574 32.906 21.039 50.812l2.8672 11.512 59.215 11.855z"/>
  <path d="m1181.2 254.74-235.99-235.99h-476.51v112.5h-337.5c-62.043 0-112.5 50.457-112.5 112.5v825c0 62.043 50.457 112.5 112.5 112.5h693.75v-37.5c-41.363 0-75-33.637-75-75s33.637-75 75-75v-75h356.25zm-225-171.98 160.99 160.99h-160.99zm-215.04 1061h-609.96c-41.363 0-75-33.637-75-75s33.637-75 75-75h609.96c-17.832 19.914-28.707 46.219-28.707 75s10.875 55.086 28.707 75zm-591.21-187.5v-637.5h-37.5v639.19c-21.414 3.6172-40.742 13.273-56.25 27.188v-741.38c0-34.836 23.98-63.957 56.25-72.336v109.84h37.5v-112.5h637.5v787.5zm675-75v-37.5h281.25v-37.5h-281.25v-37.5h206.25v-37.5h-206.25v-37.5h281.25v-37.5h-281.25v-37.5h281.25v-37.5h-281.25v-37.5h281.25v-37.5h-281.25v-37.5h281.25v-37.5h-281.25v-37.5h281.25v-37.5h-281.25v-225h-318.75v-75h412.5v225h225v600z"/>
  <path d="m712.5 206.25h37.5v37.5h-37.5z"/>
  <path d="m637.5 206.25h37.5v37.5h-37.5z"/>
  <path d="m187.5 881.25h37.5v37.5h-37.5z"/>
  <path d="m262.5 881.25h37.5v37.5h-37.5z"/>
  <path d="m637.5 1050h37.5v37.5h-37.5z"/>
 </g>
</svg>
